<svg width="198" height="60" viewBox="0 0 198 60" fill="none" xmlns="http://www.w3.org/2000/svg">
<g clip-path="url(#clip0_113_887)">
<path d="M20.613 6.83985H15.3851C15.1361 6.83985 14.9237 6.92735 14.7497 7.10054C14.5758 7.27372 14.4879 7.48519 14.4879 7.73311V26.3203C14.4879 26.5682 14.4073 26.7797 14.2444 26.9529C14.0814 27.1261 13.8653 27.2136 13.5906 27.2136H7.99105C7.74201 27.2136 7.5296 27.1279 7.35565 26.9529C7.18169 26.7797 7.09379 26.5682 7.09379 26.3203V7.73311C7.09379 7.48519 7.01322 7.27372 6.85025 7.10054C6.68728 6.92735 6.47121 6.83985 6.19654 6.83985H0.895422C0.646389 6.83985 0.433978 6.75417 0.26002 6.57916C0.0860631 6.40598 0 6.19634 0 5.94841V0.891441C0 0.643515 0.0860631 0.433871 0.261851 0.258864C0.435809 0.0875034 0.646389 0 0.895422 0H20.6112C20.884 0 21.1019 0.0875034 21.2649 0.260687C21.426 0.433871 21.5084 0.645338 21.5084 0.893264V5.94841C21.5084 6.19634 21.4279 6.4078 21.2649 6.58099C21.1038 6.75417 20.8859 6.83985 20.613 6.83985Z" fill="white"/>
<path d="M48.731 0.891311V26.3202C48.731 26.5681 48.6431 26.7796 48.4691 26.9527C48.2952 27.1259 48.0827 27.2134 47.8337 27.2134H42.2323C41.9576 27.2134 41.7397 27.1278 41.5786 26.9527C41.4156 26.7796 41.335 26.5681 41.335 26.3202V18.3647C41.335 18.1167 41.249 17.9071 41.075 17.7321C40.9011 17.5589 40.6905 17.4714 40.4433 17.4714H32.7818C32.509 17.4714 32.2911 17.5589 32.13 17.7321C31.9688 17.9053 31.8882 18.1167 31.8882 18.3647V26.3202C31.8882 26.5681 31.8003 26.7796 31.6246 26.9527C31.4488 27.1259 31.2364 27.2134 30.9873 27.2134H25.3951C25.1204 27.2134 24.9007 27.1278 24.7377 26.9527C24.5747 26.7796 24.4941 26.5681 24.4941 26.3202V0.891311C24.4941 0.643385 24.5747 0.433741 24.7377 0.258734C24.9007 0.0855503 25.1186 -0.00195312 25.3951 -0.00195312H30.9873C31.2364 -0.00195312 31.4506 0.0837273 31.6246 0.256911C31.8003 0.430095 31.8882 0.639739 31.8882 0.885842V9.66535C31.8882 9.91328 31.9688 10.1229 32.13 10.2961C32.2911 10.4693 32.5072 10.555 32.7818 10.555H40.4433C40.6905 10.555 40.9011 10.4693 41.075 10.2961C41.249 10.1229 41.335 9.91328 41.335 9.66535V0.889488C41.335 0.643385 41.4156 0.433741 41.5786 0.260557C41.7397 0.0873733 41.9576 0.00169285 42.2323 0.00169285H47.8337C48.0827 0.00169285 48.2933 0.0891963 48.4691 0.26238C48.6431 0.433741 48.731 0.645208 48.731 0.891311Z" fill="white"/>
<path d="M61.2398 7.73298V9.29346C61.2398 9.54139 61.3277 9.75286 61.5017 9.92604C61.6756 10.0992 61.888 10.1867 62.1371 10.1867H72.2559C72.5049 10.1867 72.7155 10.2742 72.8913 10.4474C73.0652 10.6206 73.1531 10.8321 73.1531 11.08V16.2099C73.1531 16.4578 73.0652 16.6693 72.8913 16.8425C72.7173 17.0156 72.5049 17.1031 72.2559 17.1031H62.1371C61.888 17.1031 61.6756 17.1906 61.5017 17.3638C61.3277 17.537 61.2398 17.7485 61.2398 17.9964V19.4092C61.2398 19.6572 61.3277 19.8686 61.5017 20.0418C61.6756 20.215 61.888 20.3025 62.1371 20.3025H73.7501C73.9991 20.3025 74.2097 20.39 74.3855 20.5632C74.5594 20.7364 74.6473 20.9478 74.6473 21.1958V26.3256C74.6473 26.5736 74.5594 26.785 74.3855 26.9582C74.2115 27.1314 73.9991 27.2189 73.7501 27.2189H54.743C54.4939 27.2189 54.2815 27.1332 54.1076 26.9582C53.9336 26.785 53.8457 26.5736 53.8457 26.3256V0.891311C53.8457 0.643385 53.9318 0.433741 54.1076 0.258734C54.2815 0.0855503 54.4939 -0.00195312 54.743 -0.00195312H73.7501C73.9991 -0.00195312 74.2097 0.0855503 74.3855 0.258734C74.5594 0.431918 74.6473 0.643385 74.6473 0.891311V5.94646C74.6473 6.19438 74.5594 6.40585 74.3855 6.57903C74.2115 6.75222 73.9991 6.83972 73.7501 6.83972H62.1371C61.888 6.83972 61.6756 6.92722 61.5017 7.10041C61.3259 7.27359 61.2398 7.48506 61.2398 7.73298Z" fill="white"/>
<path d="M105.08 0.891311V26.3202C105.08 26.5681 104.992 26.7796 104.82 26.9527C104.646 27.1259 104.435 27.2134 104.186 27.2134H98.6711C98.422 27.2134 98.162 27.1387 97.8892 26.991C97.6163 26.8415 97.4058 26.6684 97.2556 26.4697L87.5305 12.8264C87.3803 12.6277 87.2247 12.5475 87.0635 12.584C86.9024 12.6204 86.8218 12.7644 86.8218 13.0124V26.322C86.8218 26.5699 86.7339 26.7814 86.5582 26.9546C86.3824 27.1278 86.1699 27.2153 85.9209 27.2153H80.3286C80.0778 27.2153 79.8654 27.1296 79.6896 26.9546C79.5138 26.7814 79.4277 26.5699 79.4277 26.322V0.891311C79.4277 0.643385 79.5138 0.433741 79.6896 0.258734C79.8635 0.0855503 80.076 -0.00195312 80.325 -0.00195312H85.9264C86.1754 -0.00195312 86.4355 0.0673204 86.7101 0.202222C86.983 0.338946 87.1954 0.50666 87.3455 0.703543L97.0505 14.3486C97.2007 14.5473 97.3545 14.6348 97.5175 14.6093C97.6786 14.5856 97.761 14.4489 97.761 14.2009V0.891311C97.761 0.643385 97.8471 0.433741 98.0228 0.258734C98.1968 0.0855503 98.4092 -0.00195312 98.6583 -0.00195312H104.185C104.434 -0.00195312 104.644 0.0855503 104.82 0.258734C104.992 0.433741 105.08 0.645208 105.08 0.891311Z" fill="url(#paint0_linear_113_887)"/>
<path d="M118.036 7.73298V9.29346C118.036 9.54139 118.122 9.75286 118.298 9.92604C118.472 10.0992 118.685 10.1867 118.934 10.1867H129.053C129.302 10.1867 129.512 10.2742 129.688 10.4474C129.862 10.6206 129.95 10.8321 129.95 11.08V16.2099C129.95 16.4578 129.862 16.6693 129.688 16.8425C129.514 17.0156 129.302 17.1031 129.053 17.1031H118.932C118.683 17.1031 118.47 17.1906 118.296 17.3638C118.123 17.537 118.035 17.7485 118.035 17.9964V19.4092C118.035 19.6572 118.121 19.8686 118.296 20.0418C118.47 20.215 118.683 20.3025 118.932 20.3025H130.545C130.794 20.3025 131.004 20.39 131.18 20.5632C131.354 20.7364 131.442 20.9478 131.442 21.1958V26.3256C131.442 26.5736 131.354 26.785 131.18 26.9582C131.006 27.1314 130.794 27.2189 130.545 27.2189H111.538C111.289 27.2189 111.076 27.1332 110.902 26.9582C110.728 26.785 110.641 26.5736 110.641 26.3256V0.891311C110.641 0.643385 110.727 0.433741 110.902 0.258734C111.076 0.0855503 111.289 -0.00195312 111.538 -0.00195312H130.545C130.794 -0.00195312 131.004 0.0855503 131.18 0.258734C131.354 0.431918 131.442 0.643385 131.442 0.891311V5.94646C131.442 6.19438 131.354 6.40585 131.18 6.57903C131.006 6.75222 130.794 6.83972 130.545 6.83972H118.932C118.683 6.83972 118.47 6.92722 118.296 7.10041C118.123 7.27359 118.036 7.48506 118.036 7.73298Z" fill="url(#paint1_linear_113_887)"/>
<path d="M142.98 13.0486L133.607 1.07706C133.456 0.878353 133.42 0.655949 133.495 0.408022C133.57 0.160096 133.731 0.0361328 133.98 0.0361328H141.149C141.398 0.0361328 141.658 0.110875 141.933 0.258537C142.205 0.408022 142.418 0.581206 142.568 0.778089L147.236 7.58148C147.386 7.78019 147.56 7.87863 147.759 7.87863C147.957 7.87863 148.133 7.78019 148.281 7.58148C149.078 6.46581 149.869 5.32097 150.652 4.14332C151.436 2.96567 152.202 1.83178 152.949 0.741629C153.099 0.542923 153.309 0.377032 153.584 0.240307C153.857 0.103583 154.119 0.0361328 154.368 0.0361328H161.5C161.799 0.0361328 161.973 0.160096 162.024 0.408022C162.073 0.655949 162.024 0.878353 161.874 1.07706L152.575 13.0468C152.425 13.2455 152.352 13.4807 152.352 13.7523C152.352 14.0257 152.427 14.2609 152.575 14.4578L161.689 26.134C161.839 26.3327 161.87 26.5624 161.782 26.8213C161.694 27.082 161.526 27.2114 161.279 27.2114H154.183C153.934 27.2114 153.672 27.1367 153.399 26.989C153.125 26.8395 152.914 26.6663 152.764 26.4676L148.283 19.9614C148.133 19.7627 147.959 19.6642 147.761 19.6642C147.562 19.6642 147.388 19.7645 147.237 19.9614L142.757 26.4676C142.606 26.6663 142.396 26.8395 142.121 26.989C141.847 27.1385 141.587 27.2114 141.338 27.2114H134.244C133.995 27.2114 133.834 27.082 133.758 26.8213C133.683 26.5606 133.722 26.3327 133.87 26.134L142.982 14.4614C143.132 14.2627 143.205 14.0276 143.205 13.7559C143.203 13.4825 143.128 13.2473 142.98 13.0486Z" fill="url(#paint2_linear_113_887)"/>
<path d="M182.636 6.83972H177.408C177.159 6.83972 176.947 6.92722 176.773 7.10041C176.599 7.27359 176.511 7.48506 176.511 7.73298V26.3202C176.511 26.5681 176.431 26.7796 176.268 26.9527C176.105 27.1259 175.889 27.2134 175.614 27.2134H170.012C169.763 27.2134 169.551 27.1278 169.377 26.9527C169.203 26.7796 169.115 26.5681 169.115 26.3202V7.73298C169.115 7.48506 169.035 7.27359 168.873 7.10041C168.71 6.92722 168.494 6.83972 168.22 6.83972H162.917C162.668 6.83972 162.455 6.75404 162.281 6.57903C162.107 6.40585 162.02 6.19438 162.02 5.94646V0.891311C162.02 0.643385 162.106 0.433741 162.281 0.258734C162.455 0.0855503 162.668 -0.00195312 162.917 -0.00195312H182.636C182.911 -0.00195312 183.127 0.0855503 183.29 0.258734C183.451 0.431918 183.532 0.643385 183.532 0.891311V5.94646C183.532 6.19438 183.451 6.40585 183.29 6.57903C183.127 6.75404 182.909 6.83972 182.636 6.83972Z" fill="url(#paint3_linear_113_887)"/>
<path d="M65.3984 52.1925H62.1408C61.8918 52.1925 61.6794 52.28 61.5036 52.4532C61.3278 52.6264 61.2418 52.8379 61.2418 53.0858V58.624C61.2418 58.8719 61.1557 59.0834 60.9817 59.2566C60.8078 59.4298 60.5972 59.5173 60.35 59.5173H54.7394C54.4922 59.5173 54.2816 59.4298 54.1077 59.2566C53.9337 59.0834 53.8477 58.8719 53.8477 58.624V33.197C53.8477 32.9491 53.9337 32.7394 54.1095 32.5644C54.2835 32.3912 54.4959 32.3037 54.7449 32.3037H66.1712C67.5646 32.3037 68.8794 32.5644 70.1099 33.0839C71.3423 33.6035 72.4116 34.3236 73.3217 35.2405C74.23 36.1575 74.9514 37.224 75.4879 38.4381C76.0226 39.6522 76.29 40.9538 76.29 42.3411C76.29 43.7302 76.0647 45.0245 75.6161 46.2259C75.1675 47.429 74.4863 48.47 73.5762 49.3487C72.6662 50.2292 71.5309 50.9219 70.1703 51.4305C68.8098 51.9391 67.2186 52.1925 65.3984 52.1925ZM65.6694 39.1454H62.1427C61.8918 39.1454 61.6794 39.2311 61.5036 39.4042C61.3278 39.5774 61.2418 39.7853 61.2418 40.0314V44.3919C61.2418 44.638 61.3296 44.8477 61.5036 45.0209C61.6794 45.1941 61.8918 45.2797 62.1427 45.2797H66.1583C67.1087 45.2797 67.8027 44.9789 68.2403 44.3755C68.678 43.7721 68.8977 43.0885 68.8977 42.3247C68.8977 41.9309 68.8281 41.5426 68.6908 41.1598C68.5535 40.7788 68.3465 40.4397 68.0719 40.1444C67.7972 39.8491 67.4584 39.6084 67.0593 39.4225C66.6582 39.2365 66.195 39.1454 65.6694 39.1454Z" fill="white"/>
<path d="M103.549 33.197V58.6258C103.549 58.8738 103.461 59.0852 103.287 59.2584C103.114 59.4316 102.901 59.5191 102.652 59.5191H97.0506C96.776 59.5191 96.5581 59.4316 96.3969 59.2584C96.234 59.0852 96.1534 58.8738 96.1534 58.6258V50.6703C96.1534 50.4224 96.0673 50.2127 95.8934 50.0377C95.7194 49.8646 95.5088 49.777 95.2616 49.777H87.6002C87.3273 49.777 87.1094 49.8646 86.9483 50.0377C86.7872 50.2109 86.7066 50.4224 86.7066 50.6703V58.6258C86.7066 58.8738 86.6187 59.0852 86.4429 59.2584C86.2671 59.4316 86.0547 59.5191 85.8057 59.5191H80.2134C79.9387 59.5191 79.719 59.4316 79.556 59.2584C79.3931 59.0852 79.3125 58.8738 79.3125 58.6258V33.197C79.3125 32.9491 79.3931 32.7394 79.556 32.5644C79.719 32.3912 79.9369 32.3037 80.2134 32.3037H85.8057C86.0547 32.3037 86.269 32.3894 86.4429 32.5626C86.6187 32.7358 86.7066 32.9454 86.7066 33.1915V41.971C86.7066 42.2189 86.7872 42.4286 86.9483 42.6018C87.1094 42.775 87.3273 42.8606 87.6002 42.8606H95.2616C95.5088 42.8606 95.7194 42.775 95.8934 42.6018C96.0673 42.4286 96.1534 42.2189 96.1534 41.971V33.1915C96.1534 32.9454 96.234 32.7358 96.3969 32.5626C96.5581 32.3894 96.776 32.3037 97.0506 32.3037H102.652C102.901 32.3037 103.112 32.3912 103.287 32.5644C103.461 32.7376 103.549 32.9491 103.549 33.197Z" fill="white"/>
<path d="M107.881 45.9102C107.881 43.9778 108.254 42.1548 109.002 40.4449C109.749 38.7349 110.756 37.2419 112.027 35.9658C113.295 34.6897 114.79 33.6798 116.507 32.936C118.225 32.1922 120.054 31.8203 121.997 31.8203C123.94 31.8203 125.769 32.1922 127.487 32.936C129.204 33.6798 130.704 34.6897 131.986 35.9658C133.268 37.2419 134.282 38.7349 135.029 40.4449C135.776 42.1548 136.15 43.976 136.15 45.9102C136.15 47.8426 135.776 49.6655 135.029 51.3755C134.282 53.0855 133.268 54.5785 131.986 55.8546C130.704 57.1307 129.204 58.1406 127.487 58.8844C125.769 59.6282 123.94 60.0001 121.997 60.0001C120.054 60.0001 118.225 59.6282 116.507 58.8844C114.79 58.1406 113.295 57.1307 112.027 55.8546C110.758 54.5785 109.749 53.0855 109.002 51.3755C108.254 49.6655 107.881 47.8444 107.881 45.9102ZM115.275 45.9102C115.275 46.8527 115.449 47.7441 115.799 48.5863C116.147 49.4285 116.626 50.1723 117.236 50.8177C117.846 51.463 118.562 51.9771 119.384 52.3599C120.206 52.7446 121.076 52.936 121.997 52.936C122.918 52.936 123.79 52.7446 124.61 52.3599C125.432 51.9753 126.154 51.4612 126.776 50.8177C127.399 50.1742 127.884 49.4304 128.232 48.5863C128.58 47.7441 128.756 46.8527 128.756 45.9102C128.756 44.9932 128.582 44.1072 128.232 43.2523C127.882 42.3973 127.397 41.6535 126.776 41.0228C126.154 40.3902 125.432 39.8834 124.61 39.4987C123.788 39.1141 122.916 38.9227 121.997 38.9227C121.076 38.9227 120.204 39.1141 119.384 39.4987C118.562 39.8834 117.846 40.3902 117.236 41.0228C116.626 41.6553 116.147 42.3973 115.799 43.2523C115.449 44.1072 115.275 44.9932 115.275 45.9102Z" fill="white"/>
<path d="M157.472 39.1454H152.244C151.995 39.1454 151.783 39.2329 151.609 39.4061C151.435 39.5793 151.347 39.7907 151.347 40.0387V58.6258C151.347 58.8738 151.266 59.0852 151.103 59.2584C150.941 59.4316 150.724 59.5191 150.45 59.5191H144.848C144.599 59.5191 144.387 59.4316 144.213 59.2584C144.039 59.0852 143.951 58.8738 143.951 58.6258V40.0368C143.951 39.7889 143.871 39.5774 143.709 39.4042C143.546 39.2311 143.33 39.1436 143.056 39.1436H137.753C137.504 39.1436 137.291 39.0579 137.117 38.8829C136.943 38.7097 136.855 38.4982 136.855 38.2503V33.197C136.855 32.9491 136.942 32.7394 137.117 32.5644C137.291 32.3912 137.504 32.3037 137.753 32.3037H157.468C157.743 32.3037 157.959 32.3912 158.122 32.5644C158.283 32.7376 158.366 32.9491 158.366 33.197V38.2521C158.366 38.5 158.285 38.7115 158.122 38.8847C157.963 39.0579 157.745 39.1454 157.472 39.1454Z" fill="white"/>
<path d="M159.449 45.9102C159.449 43.9778 159.823 42.1548 160.57 40.4449C161.317 38.7349 162.324 37.2419 163.595 35.9658C164.864 34.6897 166.358 33.6798 168.076 32.936C169.793 32.1922 171.623 31.8203 173.565 31.8203C175.506 31.8203 177.338 32.1922 179.055 32.936C180.773 33.6798 182.272 34.6897 183.554 35.9658C184.836 37.2419 185.85 38.7349 186.598 40.4449C187.345 42.1548 187.718 43.976 187.718 45.9102C187.718 47.8426 187.345 49.6655 186.598 51.3755C185.85 53.0855 184.836 54.5785 183.554 55.8546C182.272 57.1307 180.773 58.1406 179.055 58.8844C177.338 59.6282 175.508 60.0001 173.565 60.0001C171.624 60.0001 169.793 59.6282 168.076 58.8844C166.358 58.1406 164.864 57.1307 163.595 55.8546C162.326 54.5785 161.317 53.0855 160.57 51.3755C159.823 49.6655 159.449 47.8444 159.449 45.9102ZM166.843 45.9102C166.843 46.8527 167.017 47.7441 167.365 48.5863C167.713 49.4285 168.193 50.1723 168.803 50.8177C169.412 51.463 170.128 51.9771 170.951 52.3599C171.773 52.7446 172.642 52.936 173.564 52.936C174.485 52.936 175.356 52.7446 176.177 52.3599C176.999 51.9753 177.72 51.4612 178.343 50.8177C178.965 50.1742 179.451 49.4304 179.799 48.5863C180.146 47.7441 180.32 46.8527 180.32 45.9102C180.32 44.9932 180.146 44.1072 179.799 43.2523C179.449 42.3973 178.964 41.6535 178.343 41.0228C177.72 40.3902 176.999 39.8834 176.177 39.4987C175.354 39.1141 174.483 38.9227 173.564 38.9227C172.642 38.9227 171.771 39.1141 170.951 39.4987C170.128 39.8834 169.412 40.3902 168.803 41.0228C168.193 41.6553 167.713 42.3973 167.365 43.2523C167.017 44.1072 166.843 44.9932 166.843 45.9102Z" fill="white"/>
<path d="M191.207 33.9585C191.061 33.9585 190.922 33.9312 190.788 33.8747C190.656 33.8182 190.541 33.7434 190.442 33.645C190.345 33.5484 190.268 33.4335 190.211 33.3004C190.156 33.1692 190.127 33.0288 190.127 32.883C190.127 32.7371 190.154 32.6004 190.211 32.471C190.266 32.3416 190.343 32.2304 190.442 32.1319C190.539 32.0353 190.654 31.9587 190.788 31.9022C190.92 31.8457 191.061 31.8184 191.207 31.8184C191.354 31.8184 191.489 31.8457 191.616 31.9022C191.742 31.9569 191.854 32.0335 191.951 32.1319C192.048 32.2285 192.125 32.3416 192.181 32.471C192.236 32.5986 192.266 32.7371 192.266 32.883C192.266 33.0288 192.238 33.1674 192.181 33.3004C192.125 33.4317 192.05 33.5466 191.951 33.645C191.854 33.7416 191.742 33.8182 191.616 33.8747C191.491 33.9312 191.354 33.9585 191.207 33.9585Z" fill="white"/>
<path d="M192.235 42.056C191.907 41.8537 191.61 41.6331 191.343 41.3888C191.075 41.1464 190.848 40.8729 190.662 40.5703C190.475 40.2677 190.328 39.9322 190.224 39.564C190.12 39.1958 190.068 38.7892 190.068 38.3444C190.068 37.7884 190.173 37.267 190.381 36.7803C190.59 36.2936 190.874 35.8688 191.229 35.5042C191.585 35.1396 192.004 34.8534 192.485 34.6438C192.967 34.4359 193.48 34.332 194.024 34.332C194.567 34.332 195.08 34.4359 195.562 34.6438C196.043 34.8516 196.463 35.1396 196.818 35.5042C197.173 35.8688 197.457 36.2936 197.666 36.7803C197.874 37.267 197.981 37.7884 197.981 38.3444C197.981 38.8038 197.928 39.2158 197.823 39.5841C197.719 39.9523 197.572 40.2859 197.384 40.5849C197.195 40.8839 196.966 41.1537 196.699 41.3925C196.43 41.6313 196.135 41.8519 195.814 42.0542C195.758 42.0888 195.699 42.0961 195.637 42.0743C195.575 42.0542 195.529 42.0123 195.501 41.9485L194.915 40.4682C194.888 40.3989 194.888 40.3297 194.915 40.2604C194.943 40.1911 194.985 40.1382 195.042 40.1036C195.362 39.9013 195.609 39.6588 195.78 39.3744C195.95 39.09 196.036 38.7455 196.036 38.3426C196.036 38.0783 195.979 37.8303 195.868 37.597C195.756 37.3637 195.608 37.1613 195.421 36.9881C195.236 36.8149 195.02 36.6782 194.776 36.5816C194.531 36.485 194.28 36.4358 194.02 36.4358C193.754 36.4358 193.5 36.485 193.258 36.5816C193.016 36.6782 192.806 36.8149 192.623 36.9881C192.442 37.1613 192.293 37.3655 192.181 37.597C192.07 37.8303 192.013 38.0783 192.013 38.3426C192.013 38.7254 192.105 39.07 192.29 39.3799C192.474 39.6898 192.714 39.9341 193.007 40.1145C193.062 40.1492 193.104 40.2002 193.134 40.2659C193.161 40.3315 193.161 40.3989 193.134 40.4682L192.548 41.9485C192.52 42.0105 192.476 42.0524 192.418 42.0743C192.357 42.098 192.297 42.0907 192.235 42.056Z" fill="white"/>
<path d="M194.035 42.5049C194.578 42.5049 195.091 42.6088 195.573 42.8184C196.054 43.0263 196.475 43.3088 196.834 43.6625C197.193 44.0161 197.479 44.4336 197.688 44.913C197.896 45.3925 198.001 45.9029 198.001 46.4444C198.001 46.9858 197.896 47.4962 197.688 47.9757C197.479 48.4551 197.193 48.8744 196.834 49.2317C196.475 49.589 196.054 49.8734 195.573 50.0812C195.091 50.289 194.578 50.3929 194.035 50.3929C193.491 50.3929 192.978 50.289 192.496 50.0812C192.015 49.8734 191.594 49.589 191.235 49.2317C190.876 48.8744 190.59 48.4551 190.381 47.9757C190.173 47.4962 190.068 46.9858 190.068 46.4444C190.068 45.9029 190.173 45.3925 190.381 44.913C190.59 44.4336 190.876 44.0161 191.235 43.6625C191.594 43.3088 192.015 43.0263 192.496 42.8184C192.978 42.6106 193.489 42.5049 194.035 42.5049ZM194.035 44.5685C193.769 44.5685 193.518 44.6177 193.28 44.7143C193.042 44.811 192.833 44.9459 192.652 45.1154C192.471 45.2849 192.326 45.4855 192.218 45.7152C192.11 45.9449 192.055 46.1873 192.055 46.4444C192.055 46.7014 192.108 46.9439 192.218 47.1736C192.326 47.4032 192.471 47.6038 192.652 47.7788C192.833 47.952 193.042 48.0887 193.28 48.1853C193.518 48.2819 193.769 48.3312 194.035 48.3312C194.293 48.3312 194.542 48.2819 194.784 48.1853C195.023 48.0887 195.234 47.952 195.412 47.7788C195.589 47.6056 195.732 47.4032 195.84 47.1736C195.948 46.9439 196.003 46.7014 196.003 46.4444C196.003 46.1873 195.948 45.9449 195.84 45.7152C195.732 45.4855 195.589 45.2868 195.412 45.1154C195.234 44.9459 195.023 44.811 194.784 44.7143C194.542 44.6159 194.293 44.5685 194.035 44.5685Z" fill="white"/>
<path d="M197.603 59.9709H190.454C190.384 59.9709 190.324 59.9472 190.276 59.898C190.227 59.8488 190.203 59.7904 190.203 59.7212V58.1552C190.203 58.0859 190.227 58.0276 190.276 57.9784C190.326 57.931 190.384 57.9055 190.454 57.9055H193.825C193.895 57.9055 193.933 57.8745 193.94 57.8107C193.948 57.7487 193.922 57.6958 193.867 57.6539L191.031 55.8984C190.974 55.8637 190.947 55.8072 190.947 55.7306C190.947 55.6541 190.974 55.5939 191.031 55.5538L193.867 53.7983C193.922 53.7636 193.948 53.7144 193.94 53.6524C193.933 53.5904 193.895 53.5576 193.825 53.5576H190.454C190.384 53.5576 190.324 53.5339 190.276 53.4847C190.227 53.4373 190.203 53.3772 190.203 53.3079V51.7419C190.203 51.6727 190.227 51.6143 190.276 51.5651C190.326 51.5159 190.384 51.4922 190.454 51.4922H197.603C197.672 51.4922 197.733 51.5159 197.78 51.5651C197.83 51.6125 197.854 51.6727 197.854 51.7419V53.193C197.854 53.2623 197.833 53.3352 197.791 53.41C197.749 53.4865 197.7 53.5412 197.645 53.5759L194.693 55.5812C194.636 55.6231 194.609 55.6723 194.609 55.727C194.609 55.7817 194.636 55.8273 194.693 55.8619L197.645 57.8672C197.7 57.9091 197.749 57.9674 197.791 58.044C197.833 58.1206 197.854 58.1935 197.854 58.2628V59.7139C197.854 59.7831 197.83 59.8415 197.78 59.8907C197.733 59.9454 197.672 59.9709 197.603 59.9709Z" fill="white"/>
</g>
<defs>
<linearGradient id="paint0_linear_113_887" x1="81.2369" y1="16.2929" x2="178.957" y2="-7.75438" gradientUnits="userSpaceOnUse">
<stop stop-color="#F39200"/>
<stop offset="0.3714" stop-color="#E6007E"/>
<stop offset="0.6798" stop-color="#82368C"/>
<stop offset="1" stop-color="#009FE3"/>
</linearGradient>
<linearGradient id="paint1_linear_113_887" x1="82.8663" y1="22.9171" x2="180.587" y2="-1.13026" gradientUnits="userSpaceOnUse">
<stop stop-color="#F39200"/>
<stop offset="0.3714" stop-color="#E6007E"/>
<stop offset="0.6798" stop-color="#82368C"/>
<stop offset="1" stop-color="#009FE3"/>
</linearGradient>
<linearGradient id="paint2_linear_113_887" x1="84.3759" y1="29.0515" x2="182.096" y2="5.00418" gradientUnits="userSpaceOnUse">
<stop stop-color="#F39200"/>
<stop offset="0.3714" stop-color="#E6007E"/>
<stop offset="0.6798" stop-color="#82368C"/>
<stop offset="1" stop-color="#009FE3"/>
</linearGradient>
<linearGradient id="paint3_linear_113_887" x1="85.5969" y1="34.0157" x2="183.317" y2="9.96838" gradientUnits="userSpaceOnUse">
<stop stop-color="#F39200"/>
<stop offset="0.3714" stop-color="#E6007E"/>
<stop offset="0.6798" stop-color="#82368C"/>
<stop offset="1" stop-color="#009FE3"/>
</linearGradient>
<clipPath id="clip0_113_887">
<rect width="198" height="60" fill="white"/>
</clipPath>
</defs>
</svg>
